<?xml version="1.0" encoding="utf-8"?>
<!-- Generator: Adobe Illustrator 18.0.0, SVG Export Plug-In . SVG Version: 6.00 Build 0)  -->
<!DOCTYPE svg PUBLIC "-//W3C//DTD SVG 1.1//EN" "http://www.w3.org/Graphics/SVG/1.1/DTD/svg11.dtd">
<svg version="1.1" id="Layer_1" xmlns="http://www.w3.org/2000/svg" xmlns:xlink="http://www.w3.org/1999/xlink" x="0px" y="0px"
	 viewBox="0 0 100 100" style="enable-background:new 0 0 100 100;" xml:space="preserve">
<path style="fill:#8DC2D2;" d="M18.153,42.484c0.121-3.906,0.417-9.398,1.484-11.471c2.428-4.682,7.465-7.82,12.381-7.82
	c3.673,0,6.932,1.837,6.932,3.85c0,0.474-0.239,0.771-1.008,1.245c-0.89,0.533-1.541,0.889-1.775,0.889
	c-0.298,0-0.298,0-1.364-1.007c-1.124-1.008-3.198-1.6-5.567-1.6c-4.564,0-6.279,1.836-6.753,7.167
	c-0.119,1.483-0.177,7.091-0.177,10.29h12.827c1.835-0.475,2.25-0.593,2.606-0.593c0.299,0,0.416,0.118,0.416,0.356
	c0,0.177,0,0.532-0.059,0.828c-0.241,2.43-0.476,7.878-0.476,11.018c0,4.091,0.177,5.75,0.77,7.407
	c0.713,1.956,2.546,3.081,4.916,3.081c2.255,0,4.682-0.593,7.288-1.837c0.713-0.354,0.771-0.534,0.771-2.431l0.062-3.376
	c0.057-1.481,0.113-4.682,0.113-5.748c0-5.448-0.057-5.921-1.127-6.573c-0.473-0.297-1.775-0.532-3.195-0.594
	c-0.474,0-0.594-0.117-0.594-0.65c0-0.593,0.061-0.652,1.301-0.652c3.615-0.176,5.156-0.355,7.232-0.651
	c0.172-0.06,0.295-0.06,0.416-0.06c0.295,0,0.473,0.179,0.473,0.475v0.533c-0.178,1.362-0.473,13.391-0.473,16.588
	c0,4.384,0.238,6.354,1.953,6.354c0.826,0,2.008,0.301,2.484,0.184c0.297-0.061,0.592-0.119,0.709-0.119
	c0.047,0,0.085,0.01,0.119,0.027c2.375-0.305,3.131-1.259,3.367-3.84c0.234-3.197,0.361-9.299,0.361-19.076
	c0-13.98,0-28.463-3.797-28.402c-0.533,0-0.59-0.118-0.59-0.594c0-0.593,0.117-0.653,3.727-1.779
	c0.481-0.151,0.904-0.283,1.287-0.401c-4.65-1.925-9.745-2.993-15.092-2.993c-19.83,0-36.24,14.612-39.065,33.653l7.058-0.074
	L18.153,42.484z"/>
<path style="fill:#8DC2D2;" d="M18.034,62.863c0.062-5.863,0.062-6.748,0.118-16.11h-0.649h-5.179c-0.707,0-1.216,0.028-1.579,0.039
	c-0.085,1.062-0.141,2.131-0.141,3.214c0,6.324,1.494,12.296,4.136,17.597C17.505,67.306,17.975,66.589,18.034,62.863z"/>
<path style="fill:#8DC2D2;" d="M82.75,48.114c0,10.188,0.182,16.233,0.533,17.418c0.327,1.231-0.131,1.642,2.233,1.971
	c2.61-5.275,4.085-11.213,4.085-17.497c0-7.972-2.37-15.388-6.433-21.595c-0.001,0.008-0.002,0.014-0.003,0.022
	C82.867,30.744,82.75,36.443,82.75,48.114z"/>
<path style="fill:#8DC2D2;" d="M69.246,65.532c0.354,1.361,1.066,1.72,4.383,2.073c0.24,0.034,0.354,0.082,0.412,0.221
	c0.113-0.11,0.334-0.159,0.775-0.221c2.422-0.295,3.195-1.244,3.434-3.852c0.24-3.197,0.355-9.299,0.355-19.076
	c0-13.98,0-15.297-3.789-15.236c-0.535,0-0.598-0.119-0.598-0.594c0-0.594,0.115-0.652,3.736-1.779
	c1.752-0.554,2.798-0.867,3.527-1.041c-3.33-4.351-7.541-7.991-12.371-10.648c-0.286,2.709-0.4,21.219-0.4,32.734
	C68.711,58.302,68.888,64.347,69.246,65.532z"/>
<path style="fill:#8DC2D2;" d="M81.451,68.908c-3.674,0-3.854,0-4.686,0.061l-2.25,0.057c-0.294,0-0.441-0.061-0.518-0.236
	c-0.086,0.122-0.232,0.18-0.49,0.18h-0.473l-1.777-0.061h-2.012h-1.838c-3.674,0-3.846,0-4.682,0.061l-2.254,0.057
	c-0.056,0-0.092-0.009-0.139-0.013l-0.26,0.096c-2.611,0.886-7.166,1.593-8.295,1.593c-0.473,0-0.768-0.299-0.768-0.771
	c0-0.179,0-0.413,0.055-0.713c0.064-0.532,0.127-3.27,0.127-3.685c-6.105,3.081-8.298,3.849-10.966,3.849
	c-2.189,0-4.264-1.007-5.51-2.661c-1.065-1.308-1.422-2.667-1.422-5.099c0-0.59,0-0.59,0.122-5.271v-1.598
	c0-7.467-0.183-7.939-2.905-7.999c-0.18-0.017-0.312-0.036-0.419-0.062h-7.73c-0.058,2.846-0.058,3.2-0.058,3.793
	c0,8.531,0.119,13.744,0.354,14.75c0.412,1.72,1.596,2.252,5.035,2.252c0.65,0,0.708,0.059,0.708,0.771
	c0,0.651-0.058,0.712-1.009,0.712c-0.233,0-1.062,0-2.129-0.061l-4.68-0.059c-1.605,0-3.816,0.052-5.115,0.154
	c6.716,12.22,19.706,20.506,34.634,20.506c14.967,0,27.988-8.328,34.688-20.602H83.28h-1.829V68.908z"/>
<path style="fill:#FFFFFF;" d="M83.283,65.532c-0.352-1.185-0.533-7.229-0.533-17.418c0-11.671,0.117-17.37,0.416-19.681"/>
</svg>
